<svg width="44" height="44" viewBox="0 0 44 44" fill="none" xmlns="http://www.w3.org/2000/svg">
<path d="M28.9231 8.88466L27.9077 7.70341C27.0468 6.79916 26.0108 6.07954 24.863 5.58835C23.7151 5.09715 22.4793 4.84464 21.2308 4.8462C16.1346 4.8462 12 8.98081 12 14.077C12 19.1731 16.1346 23.3077 21.2308 23.3077C23.1399 23.3076 25.0021 22.7158 26.561 21.6138C28.12 20.5117 29.2991 18.9536 29.9361 17.1539" stroke="#DF6059" stroke-width="3" stroke-miterlimit="10" stroke-linecap="round"/>
<path d="M32 6.45314V11.7695C32 11.9735 31.9189 12.1692 31.7747 12.3134C31.6304 12.4577 31.4347 12.5387 31.2307 12.5387H25.9144C25.2288 12.5387 24.8855 11.7103 25.3701 11.2257L30.687 5.90891C31.1716 5.42333 32 5.76756 32 6.45314Z" fill="#DF6059"/>
<path d="M20 11V16H23" stroke="#DF6059" stroke-width="3" stroke-linecap="round" stroke-linejoin="round"/>
<path d="M10.848 39.544H11.16C11.416 39.544 11.592 39.552 11.776 39.568C11.76 39.408 11.752 39.24 11.752 38.992V38.288C11.752 38.048 11.76 37.88 11.776 37.72C11.576 37.736 11.424 37.744 11.128 37.744H11.08C11.248 37.52 11.248 37.52 11.512 37.08L10.752 36.904C10.656 37.168 10.496 37.488 10.312 37.744H9.192L9.648 37.56C9.52 37.32 9.376 37.104 9.2 36.88L8.536 37.136C8.728 37.368 8.816 37.512 8.952 37.744H8.872C8.592 37.744 8.424 37.736 8.232 37.72C8.248 37.848 8.256 38.104 8.256 38.288V39C8.256 39.224 8.248 39.4 8.232 39.568C8.44 39.552 8.624 39.544 8.872 39.544H8.928C8.888 39.92 8.776 40.152 8.544 40.352C8.32 40.552 8.024 40.696 7.64 40.8C7.864 41.008 7.984 41.176 8.128 41.464C8.712 41.2 9.048 40.968 9.28 40.656C9.512 40.336 9.6 40.072 9.648 39.544H10.128V40.648C10.128 40.872 10.168 40.984 10.28 41.056C10.408 41.136 10.608 41.176 10.92 41.176C11.312 41.176 11.568 41.144 11.736 41.072C11.776 41.248 11.792 41.328 11.816 41.544C12.112 41.56 12.224 41.56 12.328 41.56C13.176 41.56 13.4 41.384 13.4 40.712V35.4C13.4 35 13.408 34.728 13.44 34.488C13.216 34.512 12.984 34.52 12.616 34.52H11.048C10.64 34.52 10.448 34.512 10.24 34.488C10.256 34.688 10.264 34.944 10.264 35.24V36.184C10.264 36.496 10.256 36.68 10.24 36.88C10.44 36.864 10.696 36.856 10.968 36.856H12.568V40.576C12.568 40.736 12.512 40.784 12.32 40.784C12.256 40.784 12.208 40.784 12.024 40.768C12.104 40.568 12.136 40.36 12.152 39.968C11.888 39.912 11.728 39.848 11.472 39.712C11.456 40.456 11.44 40.496 11.128 40.496C10.904 40.496 10.848 40.472 10.848 40.36V39.544ZM11.064 35.112H12.568V35.432H11.064V35.112ZM11.064 35.968H12.568V36.28H11.064V35.968ZM10.96 38.912H9.04V38.352H10.96V38.912ZM7.48 36.856H8.984C9.264 36.856 9.512 36.864 9.712 36.88C9.704 36.688 9.696 36.52 9.696 36.184V35.24C9.696 34.904 9.704 34.688 9.72 34.488C9.512 34.512 9.32 34.52 8.904 34.52H7.432C7.064 34.52 6.832 34.512 6.616 34.488C6.64 34.72 6.648 35 6.648 35.4V40.664C6.648 41.16 6.632 41.416 6.6 41.656H7.528C7.496 41.424 7.48 41.176 7.48 40.72V36.856ZM7.48 35.112H8.904V35.432H7.48V35.112ZM7.48 35.968H8.904V36.28H7.48V35.968ZM17.056 36.472H17.44C17.704 36.472 17.848 36.48 18.008 36.488C17.992 36.36 17.984 36.304 17.984 36.104V35.968C18.176 36.168 18.224 36.232 18.36 36.424C18.704 36.12 18.872 35.936 19.12 35.584H20.856C21.144 35.584 21.36 35.592 21.56 35.624V34.848C21.368 34.872 21.152 34.888 20.856 34.888H19.528C19.6 34.752 19.64 34.664 19.744 34.424L18.904 34.264C18.736 34.848 18.472 35.256 17.984 35.672C17.992 35.416 17.992 35.4 18.008 35.288C17.896 35.296 17.72 35.304 17.472 35.304H17.056V35.048H17.552C17.832 35.048 18.016 35.056 18.184 35.072V34.44C17.976 34.472 17.776 34.48 17.416 34.48H15.504C15.104 34.48 14.888 34.472 14.688 34.456C14.712 34.64 14.72 34.896 14.72 35.272V36.448C14.72 36.848 14.712 37.032 14.696 37.248C14.92 37.232 15.064 37.224 15.32 37.224H17.536C17.824 37.224 17.976 37.232 18.192 37.248V36.704C18.072 36.728 17.864 36.736 17.536 36.736H17.056V36.472ZM16.328 36.472V36.736H15.48V36.472H16.328ZM15.48 36.008V35.768H17.264V36.008H15.48ZM15.48 35.304V35.048H16.328V35.304H15.48ZM16.608 40.304C16.248 40.712 15.576 40.928 14.632 40.928C14.576 40.928 14.496 40.928 14.392 40.92C14.608 41.248 14.672 41.384 14.792 41.704C16.248 41.64 17.152 41.176 17.536 40.304H18.296V40.976C18.296 41.496 18.552 41.6 19.848 41.6C20.792 41.6 21.16 41.544 21.36 41.376C21.56 41.216 21.656 40.936 21.728 40.28C21.448 40.224 21.248 40.16 20.936 40.008C20.912 40.48 20.88 40.68 20.816 40.76C20.72 40.872 20.512 40.904 19.848 40.904C19.224 40.904 19.136 40.872 19.136 40.664V40.304H19.832C20.176 40.304 20.512 40.312 20.672 40.328C20.656 40.216 20.64 39.84 20.64 39.48V37.976C20.64 37.696 20.648 37.576 20.664 37.4C20.448 37.424 20.288 37.432 19.888 37.432H16.208C15.824 37.432 15.568 37.424 15.408 37.408C15.424 37.632 15.424 37.736 15.424 37.984V39.528C15.424 39.856 15.408 40.192 15.392 40.328C15.544 40.312 15.92 40.304 16.24 40.304H16.608ZM16.248 37.952H19.808V38.216H16.248V37.952ZM16.248 38.696H19.808V38.968H16.248V38.696ZM16.248 39.448H19.808V39.736H16.248V39.448ZM18.688 36.888C18.864 36.864 19.072 36.856 19.376 36.856H20.616C20.936 36.856 21.104 36.864 21.304 36.888V36.152C21.128 36.176 20.936 36.184 20.608 36.184H19.328C19.08 36.184 18.824 36.176 18.688 36.152V36.888ZM24.968 40.064C25.168 40.272 25.28 40.424 25.376 40.624C25.768 40.456 25.92 40.384 26.192 40.2C26.4 40.408 26.544 40.528 26.752 40.68C26.208 40.864 25.72 40.968 25.04 41.008C25.256 41.328 25.32 41.456 25.408 41.688C26.248 41.544 26.864 41.36 27.432 41.08C27.992 41.352 28.456 41.488 29.472 41.688C29.568 41.368 29.664 41.152 29.8 40.92C29.064 40.864 28.632 40.8 28.152 40.648C28.488 40.416 28.768 40.168 29.04 39.872C29.136 39.768 29.144 39.76 29.2 39.696L28.808 39.336C28.648 39.352 28.448 39.36 28.216 39.36H27.088C27.152 39.28 27.176 39.24 27.272 39.096H28.608C28.832 39.096 28.928 39.096 29.2 39.112C29.184 38.944 29.176 38.856 29.176 38.536V37.808C29.176 37.48 29.176 37.472 29.2 37.192C29.016 37.208 28.832 37.216 28.44 37.216H26.52C26.464 37.216 26.448 37.216 26.296 37.216C26.384 37.096 26.408 37.064 26.464 36.968H28.784C29.136 36.968 29.368 36.976 29.568 36.992V36.352C29.368 36.384 29.12 36.392 28.776 36.392H26.792C26.848 36.28 26.864 36.248 26.92 36.136H28.496C28.848 36.136 29.152 36.144 29.368 36.16C29.352 35.848 29.344 35.648 29.344 35.544V34.952C29.344 34.688 29.352 34.584 29.368 34.416C29.104 34.448 28.832 34.456 28.448 34.456H23.992C23.512 34.456 23.216 34.44 22.936 34.408C22.976 34.696 22.984 34.944 22.984 35.44C22.984 37.368 22.888 38.736 22.696 39.64C22.592 40.12 22.448 40.496 22.224 40.896C22.504 41.104 22.656 41.264 22.936 41.624C23.096 41.304 23.248 40.912 23.368 40.504C23.464 40.192 23.536 39.824 23.616 39.264C23.688 39.392 23.712 39.448 23.792 39.64C23.992 39.472 24.096 39.384 24.176 39.288C24.168 39.568 24.16 39.88 24.16 39.984V40.792C24.16 41.168 24.144 41.424 24.12 41.664H25.008C24.976 41.4 24.968 41.144 24.968 40.776V40.064ZM24.968 38.656C25.208 38.408 25.312 38.28 25.552 37.96L24.928 37.488C24.48 38.128 24.232 38.376 23.68 38.744C23.728 38.28 23.752 37.952 23.776 37.432C23.992 37.672 24 37.672 24.104 37.816C24.696 37.368 24.976 37.08 25.512 36.36L25.096 36.136H26.096C25.856 36.672 25.616 36.976 25.12 37.392C25.368 37.544 25.512 37.672 25.704 37.888C25.744 37.848 25.776 37.808 25.816 37.768V38.488C25.816 38.8 25.808 38.944 25.784 39.112C25.952 39.096 26.056 39.096 26.336 39.096H26.464C26.152 39.536 25.728 39.816 24.968 40.056V38.656ZM28.104 39.92C27.88 40.12 27.792 40.176 27.44 40.368C27.168 40.232 27 40.12 26.768 39.92H28.104ZM24.736 36.136C24.472 36.552 24.216 36.824 23.792 37.128C23.8 36.84 23.8 36.616 23.808 36.136H24.736ZM23.816 35.472V35.136H28.52V35.472H23.816ZM26.56 37.696H28.416V37.928H26.56V37.696ZM26.56 38.376H28.416V38.616H26.56V38.376ZM34.144 40.656H33.208V39.6C33.208 39.336 33.216 39.192 33.248 39.032H32.352C32.384 39.192 32.392 39.344 32.392 39.608V40.656H32.256C31.928 40.656 31.712 40.648 31.48 40.616V41.464C31.768 41.432 32.04 41.416 32.504 41.416H36.496C36.968 41.416 37.272 41.432 37.568 41.464V40.616C37.312 40.648 37.032 40.656 36.608 40.656H34.976V39.928H36.232C36.592 39.928 36.816 39.936 37.056 39.96V39.152C36.808 39.176 36.648 39.184 36.232 39.184H34.976V39.056C34.976 38.792 34.984 38.648 35.008 38.488H34.104C34.136 38.656 34.144 38.792 34.144 39.056V40.656ZM36.168 35.344H36.672C37.056 35.344 37.296 35.352 37.52 35.376V34.52C37.232 34.552 36.944 34.568 36.536 34.568H31.824C31.408 34.568 31.104 34.56 30.784 34.528C30.824 34.84 30.832 35.144 30.832 35.904C30.832 38.672 30.664 39.872 30.128 40.856C30.384 41.064 30.568 41.264 30.824 41.616C31.336 40.632 31.552 39.664 31.648 37.912C31.784 38.056 31.92 38.224 32.048 38.408C32.408 38.072 32.608 37.808 32.88 37.304C32.872 37.56 32.864 37.696 32.864 37.792V38.176C32.864 38.368 32.848 38.528 32.824 38.672H33.608C33.584 38.512 33.576 38.408 33.576 38.184V37.792C33.576 37.624 33.568 37.424 33.552 37.272C33.696 37.528 33.816 37.672 34.032 37.856C34.32 37.472 34.32 37.472 34.496 37.288C34.176 37.104 33.912 36.864 33.76 36.608H34C34.184 36.608 34.28 36.616 34.384 36.632V35.92C34.272 35.936 34.176 35.944 33.944 35.944H33.576V35.344H35.448V35.944H35.064C34.848 35.944 34.784 35.944 34.592 35.92V36.632C34.728 36.616 34.792 36.608 34.96 36.608H35.272C35.048 37.08 34.624 37.544 34.104 37.888C34.288 38.04 34.416 38.176 34.6 38.424C34.968 38.096 35.224 37.784 35.464 37.344C35.456 37.504 35.448 37.864 35.448 37.88V38.208C35.448 38.4 35.44 38.488 35.408 38.672H36.208C36.176 38.528 36.168 38.416 36.168 38.184V37.808C36.16 37.568 36.16 37.424 36.152 37.376C36.152 37.36 36.152 37.32 36.144 37.28C36.44 37.776 36.744 38.112 37.2 38.464C37.392 38.192 37.504 38.056 37.72 37.832C37.104 37.496 36.744 37.168 36.368 36.608H36.936C37.136 36.608 37.28 36.616 37.408 36.632V35.912C37.272 35.936 37.136 35.944 36.928 35.944H36.168V35.344ZM32.864 35.344V35.944H32.232C32.048 35.944 31.96 35.936 31.84 35.912V36.632C31.944 36.616 32.048 36.608 32.232 36.608H32.656C32.552 36.808 32.432 36.976 32.24 37.216C32.096 37.392 31.92 37.552 31.656 37.752C31.68 37.24 31.688 36.72 31.688 35.968V35.344H32.864Z" fill="#DF6059"/>
</svg>
