<svg width="39" height="39" viewBox="0 0 39 39" fill="none" xmlns="http://www.w3.org/2000/svg">
<rect x="7" y="5" width="25" height="24" fill="white"/>
<path d="M30.875 3.25H8.125C7.26305 3.25 6.4364 3.59241 5.8269 4.2019C5.21741 4.8114 4.875 5.63805 4.875 6.5V27.625C4.875 28.487 5.21741 29.3136 5.8269 29.9231C6.4364 30.5326 7.26305 30.875 8.125 30.875H14.625L19.5 35.75L24.375 30.875H30.875C31.737 30.875 32.5636 30.5326 33.1731 29.9231C33.7826 29.3136 34.125 28.487 34.125 27.625V6.5C34.125 5.63805 33.7826 4.8114 33.1731 4.2019C32.5636 3.59241 31.737 3.25 30.875 3.25ZM19.5 8.125C22.3064 8.125 24.375 10.192 24.375 13C24.375 15.808 22.3064 17.875 19.5 17.875C16.6953 17.875 14.625 15.808 14.625 13C14.625 10.192 16.6953 8.125 19.5 8.125ZM11.6626 26C12.5694 23.2001 15.7186 21.125 19.5 21.125C23.2814 21.125 26.4322 23.2001 27.3374 26H11.6626Z" fill="#3A8CED"/>
</svg>
