<svg width="41" height="40" viewBox="0 0 41 40" fill="none" xmlns="http://www.w3.org/2000/svg">
<path d="M9.38767 10.6885L25.8358 26.8009C26.1479 27.1066 26.3232 27.5213 26.3232 27.9537C26.3232 28.3861 26.1479 28.8007 25.8358 29.1065V29.1065C25.5236 29.4121 25.1003 29.5838 24.6589 29.5838C24.2176 29.5838 23.7943 29.4121 23.4821 29.1065L19.4642 25.1028C19.2013 24.8412 19.0538 24.4889 19.0535 24.1218V23.88C19.0535 23.6946 19.016 23.5111 18.943 23.3401C18.87 23.1691 18.7631 23.014 18.6285 22.8838L18.1097 22.4145C17.9336 22.2553 17.7195 22.1421 17.487 22.0852C17.2545 22.0284 17.0111 22.0297 16.7793 22.0891V22.0891C16.4138 22.1826 16.0296 22.1808 15.665 22.0839C15.3004 21.987 14.968 21.7984 14.7007 21.5368L10.8868 17.8003C8.62426 15.5839 7.79165 12.237 9.38767 10.6885Z" stroke="#DF6059" strokeWidth="2" strokeLinejoin="round"/>
<path d="M24.6787 10L21.2299 13.3783C20.9645 13.6383 20.754 13.9468 20.6104 14.2865C20.4668 14.6261 20.3929 14.9901 20.3929 15.3577V16.0076C20.3929 16.0995 20.3744 16.1905 20.3385 16.2755C20.3025 16.3604 20.2499 16.4376 20.1835 16.5026L19.6786 16.9972" stroke="#DF6059" strokeWidth="2" strokeLinecap="round" strokeLinejoin="round"/>
<path d="M21.1071 18.3966L21.6121 17.902C21.6784 17.8369 21.7572 17.7853 21.8439 17.7502C21.9306 17.715 22.0236 17.6969 22.1174 17.6969H22.7808C23.1561 17.6969 23.5277 17.6245 23.8744 17.4838C24.2211 17.3431 24.5361 17.1368 24.8014 16.8769L28.2501 13.4985" stroke="#DF6059" strokeWidth="2" strokeLinecap="round" strokeLinejoin="round"/>
<path d="M26.4644 11.7495L22.8929 15.2481" stroke="#DF6059" strokeWidth="2" strokeLinecap="round" strokeLinejoin="round"/>
<path d="M15.7498 24.6941L11.2979 29.0796C10.963 29.4076 10.5089 29.5918 10.0354 29.5918C9.56185 29.5918 9.10772 29.4076 8.77284 29.0796V29.0796C8.43807 28.7516 8.25 28.3067 8.25 27.8429C8.25 27.379 8.43807 26.9342 8.77284 26.6061L12.5354 22.9448" stroke="#DF6059" strokeWidth="2" strokeLinecap="round" strokeLinejoin="round"/>
</svg>
