<svg width="44" height="44" viewBox="0 0 44 44" fill="none" xmlns="http://www.w3.org/2000/svg">
<path d="M15 8H29" stroke="#DF6059" stroke-width="4" stroke-miterlimit="10" stroke-linecap="round"/>
<path d="M15 14H29" stroke="#DF6059" stroke-width="4" stroke-miterlimit="10" stroke-linecap="round"/>
<path d="M15 20H29" stroke="#DF6059" stroke-width="4" stroke-miterlimit="10" stroke-linecap="round"/>
<path d="M11.384 34.592C11.28 35.168 10.768 36.328 10.256 37.168C10.192 37.128 10.192 37.128 9.592 36.696C9.2 36.416 8.856 36.192 8.272 35.848L7.568 36.552C8.28 36.944 9.048 37.464 9.688 37.992C9.376 38.392 9.056 38.736 8.672 39.08C8.04 39.656 7.488 40.024 6.6 40.464C6.96 40.768 7.088 40.912 7.304 41.296C8.12 40.84 8.632 40.48 9.208 39.976C9.696 39.544 10.112 39.096 10.456 38.64C11.184 39.288 11.664 39.784 12.08 40.328L12.848 39.504C12.152 38.768 11.736 38.376 11.064 37.808C11.376 37.344 11.688 36.736 12.192 35.544C12.352 35.184 12.384 35.12 12.472 34.968L11.384 34.592ZM15.48 36.528C15.744 36.496 15.936 36.488 16.416 36.488H19.576C20.056 36.488 20.248 36.496 20.512 36.528V35.472C20.224 35.52 20.04 35.528 19.568 35.528H16.424C15.952 35.528 15.768 35.52 15.48 35.472V36.528ZM14.672 40.44C14.952 40.408 15.16 40.4 15.68 40.4H20.304C20.824 40.4 21.032 40.408 21.312 40.44V39.368C21.008 39.416 20.832 39.424 20.288 39.424H15.696C15.152 39.424 14.976 39.416 14.672 39.368V40.44ZM27.232 40.296C27.368 39.576 27.456 39.008 27.576 38.128C27.664 37.464 27.664 37.464 27.76 37.216L27.32 36.832C27.128 36.888 27.008 36.904 26.728 36.904H24.704C24.392 36.904 24.168 36.888 23.968 36.856V37.76C24.176 37.736 24.296 37.728 24.68 37.728H26.664C26.584 38.456 26.416 39.584 26.28 40.296H23.92C23.552 40.296 23.408 40.288 23.184 40.248V41.16C23.4 41.136 23.568 41.128 23.92 41.128H28.072C28.408 41.128 28.592 41.136 28.808 41.16V40.248C28.592 40.288 28.44 40.296 28.072 40.296H27.232ZM30.568 38.488C30.888 38.448 30.976 38.448 31.872 38.448H36.12C37.016 38.448 37.104 38.448 37.424 38.488V37.376C37.072 37.424 36.92 37.432 36.128 37.432H31.864C31.072 37.432 30.92 37.424 30.568 37.376V38.488Z" fill="#DF6059"/>
</svg>
