<svg width="40" height="40" viewBox="0 0 40 40" fill="none" xmlns="http://www.w3.org/2000/svg">
<path d="M26.1732 15.601L25.2679 14.5477C24.5002 13.7414 23.5765 13.0997 22.553 12.6618C21.5295 12.2238 20.4276 11.9986 19.3143 12C14.7702 12 11.0835 15.6867 11.0835 20.2308C11.0835 24.7748 14.7702 28.4615 19.3143 28.4615C21.0166 28.4614 22.677 27.9337 24.0671 26.9511C25.4572 25.9684 26.5085 24.5791 27.0765 22.9744" stroke="#333333" stroke-width="2" stroke-miterlimit="10" stroke-linecap="round"/>
<path d="M28.9171 13.4325V18.173C28.9171 18.3549 28.8448 18.5293 28.7162 18.658C28.5875 18.7866 28.4131 18.8589 28.2312 18.8589H23.4908C22.8795 18.8589 22.5734 18.1202 23.0055 17.6881L27.7463 12.9473C28.1784 12.5143 28.9171 12.8212 28.9171 13.4325Z" fill="#333333"/>
<path d="M18.2168 16.4583V21.8083H21.7835" stroke="#333333" stroke-width="2" stroke-linecap="round" stroke-linejoin="round"/>
</svg>
