<svg width="40" height="40" viewBox="0 0 40 40" fill="none" xmlns="http://www.w3.org/2000/svg">
<path d="M25.9231 15.0385L24.9077 13.8572C24.0468 12.953 23.0108 12.2334 21.863 11.7422C20.7151 11.251 19.4793 10.9985 18.2308 11C13.1346 11 9 15.1346 9 20.2308C9 25.3269 13.1346 29.4615 18.2308 29.4615C20.1399 29.4614 22.0021 28.8696 23.561 27.7676C25.12 26.6655 26.2991 25.1074 26.9361 23.3077" stroke="#DF6059" strokeWidth="2" strokeMiterlimit="10" strokeLinecap="round"/>
<path d="M29.0002 12.6067V17.923C29.0002 18.1271 28.9192 18.3227 28.7749 18.467C28.6306 18.6112 28.435 18.6923 28.231 18.6923H22.9146C22.229 18.6923 21.8858 17.8639 22.3704 17.3793L27.6872 12.0625C28.1718 11.5769 29.0002 11.9211 29.0002 12.6067Z" fill="#DF6059"/>
<path d="M17 16V22H21" stroke="#DF6059" strokeWidth="2" strokeLinecap="round" strokeLinejoin="round"/>
</svg>
