<svg width="32" height="30" viewBox="0 0 32 30" fill="none" xmlns="http://www.w3.org/2000/svg">
<path d="M24.3077 8.76926L23.0892 7.35176C22.0561 6.26666 20.813 5.40312 19.4356 4.81368C18.0581 4.22424 16.5752 3.92124 15.0769 3.9231C8.96154 3.9231 4 8.88464 4 15C4 21.1154 8.96154 26.077 15.0769 26.077C17.3679 26.0768 19.6025 25.3666 21.4732 24.0442C23.344 22.7217 24.7589 20.852 25.5233 18.6923" stroke="white" stroke-width="2" stroke-miterlimit="10" stroke-linecap="round"/>
<path d="M27.9999 5.85109V12.2307C27.9999 12.4755 27.9027 12.7103 27.7296 12.8834C27.5565 13.0565 27.3217 13.1538 27.0769 13.1538H20.6973C19.8746 13.1538 19.4626 12.1597 20.0442 11.5782L26.4244 5.19801C27.0059 4.61532 27.9999 5.0284 27.9999 5.85109Z" fill="white"/>
<path d="M13.6 9.9231V17.1231H18.4" stroke="white" stroke-width="2" stroke-linecap="round" stroke-linejoin="round"/>
</svg>
