<svg width="41" height="40" viewBox="0 0 41 40" fill="none" xmlns="http://www.w3.org/2000/svg">
<path d="M28.1318 16.2652L27.1961 14.6408C27.0796 14.4385 26.8876 14.2907 26.6623 14.23C26.4369 14.1693 26.1967 14.2005 25.9944 14.3169L20.4042 17.5555C20.3695 17.5755 20.3301 17.586 20.2901 17.5859C20.25 17.5858 20.2107 17.5752 20.176 17.555C20.1414 17.5348 20.1128 17.5058 20.093 17.471C20.0732 17.4361 20.0629 17.3967 20.0633 17.3566L20.0678 10.9091C20.0678 10.668 19.9721 10.4367 19.8016 10.2663C19.6311 10.0958 19.3999 10 19.1588 10H17.3407C17.0996 10 16.8683 10.0958 16.6978 10.2663C16.5274 10.4367 16.4316 10.668 16.4316 10.9091L16.4356 17.3617C16.4359 17.4018 16.4257 17.4412 16.4059 17.4761C16.3861 17.5109 16.3574 17.5399 16.3228 17.5601C16.2882 17.5803 16.2489 17.5909 16.2088 17.591C16.1687 17.5911 16.1294 17.5806 16.0947 17.5606L10.5045 14.322C10.3022 14.2056 10.0619 14.1744 9.83658 14.2351C9.61123 14.2958 9.41923 14.4436 9.30281 14.6459L8.36761 16.2708C8.30987 16.3707 8.27243 16.481 8.25743 16.5954C8.24244 16.7098 8.25018 16.826 8.28022 16.9374C8.31026 17.0488 8.362 17.1532 8.43247 17.2445C8.50295 17.3358 8.59077 17.4124 8.6909 17.4697L14.2868 20.7128C14.3209 20.7328 14.3493 20.7615 14.369 20.7958C14.3887 20.8302 14.399 20.8692 14.399 20.9088C14.399 20.9484 14.3887 20.9873 14.369 21.0217C14.3493 21.0561 14.3209 21.0847 14.2868 21.1048L8.6909 24.3479C8.49005 24.4649 8.34345 24.6564 8.28293 24.8809C8.2224 25.1053 8.25283 25.3446 8.36761 25.5467L9.30338 27.1711C9.4198 27.3734 9.6118 27.5211 9.83715 27.5819C10.0625 27.6426 10.3027 27.6113 10.5051 27.495L16.0952 24.2564C16.1299 24.2364 16.1693 24.2259 16.2094 24.226C16.2494 24.226 16.2888 24.2367 16.3234 24.2569C16.358 24.2771 16.3867 24.3061 16.4065 24.3409C16.4263 24.3758 16.4365 24.4152 16.4361 24.4553L16.4316 30.9085C16.4316 31.1496 16.5274 31.3808 16.6978 31.5513C16.8683 31.7218 17.0996 31.8176 17.3407 31.8176H19.1588C19.3999 31.8176 19.6311 31.7218 19.8016 31.5513C19.9721 31.3808 20.0678 31.1496 20.0678 30.9085L20.0639 24.4502C20.0635 24.4101 20.0737 24.3706 20.0935 24.3358C20.1133 24.301 20.142 24.272 20.1766 24.2518C20.2112 24.2316 20.2506 24.2209 20.2906 24.2208C20.3307 24.2208 20.3701 24.2313 20.4048 24.2513L25.995 27.4898C26.1973 27.6062 26.4375 27.6375 26.6629 27.5768C26.8882 27.516 27.0802 27.3683 27.1966 27.166L28.1324 25.5416C28.1901 25.4417 28.2276 25.3314 28.2426 25.217C28.2576 25.1026 28.2498 24.9864 28.2198 24.875C28.1897 24.7636 28.138 24.6593 28.0675 24.5679C27.9971 24.4766 27.9092 24.4001 27.8091 24.3428L22.2132 21.0997C22.1791 21.0796 22.1507 21.051 22.131 21.0166C22.1113 20.9822 22.101 20.9433 22.101 20.9037C22.101 20.864 22.1113 20.8251 22.131 20.7907C22.1507 20.7563 22.1791 20.7277 22.2132 20.7077L27.8091 17.4646C28.0104 17.3477 28.1572 17.1561 28.2177 16.9314C28.2781 16.7067 28.2473 16.4672 28.1318 16.2652V16.2652Z" stroke="#DF6059" strokeWidth="2" strokeLinecap="round" strokeLinejoin="round"/>
</svg>
