<svg width="14" height="14" viewBox="0 0 14 14" fill="none" xmlns="http://www.w3.org/2000/svg">
  <g clip-path="url(#clip0)">
    <path d="M13.5757 3.97314H6.02417" stroke="white" strokeLinecap="round" strokeLinejoin="round"/>
    <path d="M2.29098 3.97314H0.424316" stroke="white" strokeLinecap="round" strokeLinejoin="round"/>
    <path d="M4.15768 5.98854C5.18861 5.98854 6.02435 5.08628 6.02435 3.97327C6.02435 2.86027 5.18861 1.95801 4.15768 1.95801C3.12675 1.95801 2.29102 2.86027 2.29102 3.97327C2.29102 5.08628 3.12675 5.98854 4.15768 5.98854Z" stroke="white" strokeLinejoin="round"/>
    <path d="M7.97583 11.0269H0.424316" stroke="white" strokeLinecap="round" strokeLinejoin="round"/>
    <path d="M13.5757 11.0269H11.709" stroke="white" strokeLinecap="round" strokeLinejoin="round"/>
    <path d="M9.8425 13.0418C10.8734 13.0418 11.7092 12.1395 11.7092 11.0265C11.7092 9.9135 10.8734 9.01123 9.8425 9.01123C8.81157 9.01123 7.97583 9.9135 7.97583 11.0265C7.97583 12.1395 8.81157 13.0418 9.8425 13.0418Z" stroke="white" strokeLinejoin="round"/>
  </g>
</svg>
