<svg width="44" height="44" viewBox="0 0 44 44" fill="none" xmlns="http://www.w3.org/2000/svg">
<path d="M22 24C27.5228 24 32 19.5228 32 14C32 8.47715 27.5228 4 22 4C16.4772 4 12 8.47715 12 14C12 19.5228 16.4772 24 22 24Z" stroke="#8C8C8C" stroke-width="3" stroke-linecap="round" stroke-linejoin="round"/>
<path d="M22 10.0002V18.0002" stroke="#8C8C8C" stroke-width="3" stroke-linecap="round" stroke-linejoin="round"/>
<path d="M18 14H26" stroke="#8C8C8C" stroke-width="3" stroke-linecap="round" stroke-linejoin="round"/>
<path d="M12.696 37.608C12.576 37.64 12.432 37.648 12.208 37.648H9.696C9.408 37.648 9.224 37.64 9.048 37.608V38.448C9.184 38.432 9.24 38.424 9.424 38.416C9.752 39.144 9.968 39.48 10.424 39.976C9.712 40.424 9.168 40.648 8.336 40.824C8.544 41.088 8.656 41.256 8.832 41.624C9.768 41.36 10.416 41.056 11.08 40.576C11.672 41.024 12.28 41.312 13.264 41.608C13.384 41.296 13.552 41.008 13.768 40.744C12.936 40.576 12.408 40.376 11.792 39.984C12.248 39.536 12.536 39.152 12.96 38.456C13.104 38.216 13.104 38.216 13.168 38.128L12.696 37.608ZM12.008 38.416C11.688 38.92 11.496 39.152 11.12 39.48C10.776 39.16 10.52 38.824 10.312 38.416H12.008ZM7.344 35.744H6.944C6.704 35.744 6.552 35.736 6.368 35.704V36.552C6.584 36.528 6.736 36.52 6.936 36.52H7.344V38C6.68 38.176 6.632 38.184 6.288 38.224L6.456 39.12C6.6 39.056 6.6 39.056 7.344 38.816V40.56C7.344 40.752 7.296 40.8 7.112 40.8C6.912 40.8 6.712 40.784 6.392 40.744C6.52 41.064 6.552 41.232 6.584 41.584C6.824 41.592 6.936 41.6 7.072 41.6C7.368 41.6 7.672 41.56 7.84 41.512C8.08 41.432 8.2 41.2 8.2 40.848V38.528C8.488 38.424 8.576 38.392 8.912 38.264L8.904 37.472C8.552 37.616 8.424 37.664 8.2 37.736V36.52H8.632C8.776 36.52 8.912 36.528 9.048 36.544V35.712C8.912 35.736 8.808 35.744 8.648 35.744H8.2V35.088C8.2 34.72 8.208 34.528 8.248 34.28H7.296C7.336 34.536 7.344 34.72 7.344 35.096V35.744ZM12.272 34.968C12.272 34.736 12.28 34.568 12.296 34.464C12.152 34.48 11.976 34.488 11.8 34.488H10.144C9.952 34.488 9.776 34.48 9.624 34.464C9.64 34.6 9.648 34.72 9.648 34.816C9.648 36.12 9.432 36.624 8.688 37.04C8.984 37.248 9.136 37.384 9.336 37.632C10.136 37.112 10.44 36.488 10.472 35.312H11.44V36.528C11.44 36.904 11.512 37.048 11.76 37.136C11.88 37.176 12.072 37.192 12.456 37.192C13.504 37.192 13.6 37.088 13.688 35.888C13.688 35.848 13.696 35.792 13.704 35.712C13.448 35.632 13.352 35.584 12.92 35.344C12.92 35.464 12.92 35.552 12.92 35.616C12.92 35.656 12.92 35.68 12.92 35.704C12.92 36.136 12.896 36.304 12.824 36.352C12.784 36.384 12.68 36.4 12.552 36.4C12.304 36.4 12.272 36.376 12.272 36.2V34.968ZM16.88 35.616C17.12 35.584 17.4 35.576 17.76 35.576H20.784C21.112 35.576 21.4 35.592 21.656 35.616V34.816C21.424 34.848 21.136 34.864 20.752 34.864H19.656V34.752C19.656 34.52 19.664 34.384 19.696 34.248H18.768C18.792 34.4 18.8 34.544 18.8 34.744V34.864H17.8C17.496 34.864 17.152 34.848 16.984 34.832L16.6 34.24C16.496 34.32 16.408 34.368 16.28 34.416C15.608 34.68 15.184 34.784 14.312 34.912C14.512 35.296 14.552 35.408 14.616 35.656C14.968 35.592 15.08 35.568 15.384 35.504V36.376H14.936C14.704 36.376 14.576 36.368 14.368 36.336V37.184C14.568 37.152 14.72 37.144 14.912 37.144H15.304C15.064 37.952 14.632 38.752 14.168 39.272C14.424 39.632 14.472 39.728 14.592 40.08C14.72 39.92 14.928 39.576 15.08 39.272C15.2 39.032 15.32 38.744 15.448 38.384C15.416 38.704 15.4 38.872 15.4 38.888C15.392 39.216 15.384 39.384 15.384 39.4V40.72C15.384 41.144 15.368 41.384 15.336 41.656H16.232C16.192 41.432 16.184 41.2 16.184 40.72V39.176C16.168 38.608 16.168 38.608 16.152 38.44C16.152 38.392 16.144 38.32 16.136 38.224C16.352 38.664 16.44 38.808 16.64 39.088C16.728 38.848 16.848 38.576 16.936 38.424V40.736C16.936 41.168 16.928 41.392 16.896 41.656H17.768C17.744 41.456 17.736 41.16 17.736 40.736V38.584H20.696V40.656C20.696 40.776 20.648 40.808 20.504 40.808C20.336 40.808 20.112 40.792 19.792 40.752C19.912 41.088 19.936 41.176 19.968 41.56C20.264 41.568 20.312 41.568 20.392 41.568C20.872 41.568 21.008 41.552 21.16 41.496C21.416 41.408 21.496 41.24 21.496 40.832V38.576C21.496 38.264 21.504 38.072 21.528 37.856C21.368 37.88 21.192 37.888 20.808 37.888H17.608C17.336 37.888 17.096 37.88 16.912 37.864C16.92 38.016 16.928 38.064 16.928 38.232C16.624 37.944 16.336 37.536 16.184 37.168V37.144H16.472C16.672 37.144 16.848 37.152 17.04 37.176V36.344C16.88 36.368 16.76 36.376 16.488 36.376H16.184V35.296C16.448 35.208 16.648 35.136 16.88 35.04V35.616ZM20.472 37.536C20.672 37.536 20.84 37.544 20.984 37.56C20.968 37.44 20.96 37.28 20.96 37.088V36.36C20.96 36.176 20.968 36.008 20.984 35.896C20.84 35.904 20.672 35.912 20.44 35.912H18.072C17.784 35.912 17.688 35.912 17.52 35.896C17.536 36.088 17.544 36.192 17.544 36.328V37.128C17.544 37.256 17.536 37.36 17.52 37.56C17.672 37.544 17.816 37.536 18.072 37.536H20.472ZM18.352 36.48H20.136V36.968H18.352V36.48ZM20.28 39.352C20.28 39.176 20.288 39.056 20.304 38.92C20.184 38.936 20.04 38.944 19.768 38.944H18.624C18.408 38.944 18.256 38.936 18.12 38.92C18.136 39.056 18.144 39.184 18.144 39.408V40.528C18.144 40.736 18.136 40.84 18.12 41.024H18.808V40.592H19.808C19.928 40.592 20.136 40.6 20.296 40.616C20.28 40.488 20.28 40.408 20.28 40.192V39.352ZM18.784 39.512H19.656V40.008H18.784V39.512ZM27.16 36.744V36.224C27.792 36.208 27.936 36.208 28.128 36.208C28.792 36.208 29.176 36.224 29.472 36.248L29.464 35.328C29.168 35.36 28.544 35.376 27.152 35.384C27.16 34.696 27.16 34.68 27.192 34.432L26.184 34.44C26.224 34.648 26.224 34.648 26.232 35.408C25.816 35.424 25.816 35.424 25.552 35.432C24.896 35.448 24.816 35.448 24.296 35.464C23.264 35.504 23.136 35.504 22.936 35.504C22.792 35.504 22.72 35.504 22.544 35.488L22.576 36.44C22.792 36.408 22.792 36.408 24 36.32C24.352 36.296 25.104 36.272 26.248 36.24C26.248 36.456 26.248 36.904 26.256 36.92C26.256 36.976 26.256 36.976 26.264 37.016C26.08 36.864 25.776 36.776 25.432 36.776C24.504 36.776 23.84 37.384 23.84 38.232C23.84 38.688 24.016 39.04 24.392 39.312C24.664 39.512 24.952 39.6 25.32 39.6C25.848 39.6 26.264 39.4 26.496 39.032C26.432 39.48 26.112 39.888 25.568 40.2C25.192 40.424 24.864 40.536 24.208 40.664C24.472 40.952 24.552 41.072 24.776 41.568C25.52 41.312 25.888 41.144 26.224 40.912C27 40.376 27.416 39.624 27.416 38.752C27.416 38.32 27.336 37.992 27.16 37.624C27.16 37.528 27.152 37.464 27.152 37.432L27.16 36.744ZM26.24 38.064C26.24 38.48 25.912 38.784 25.456 38.784C25.056 38.784 24.776 38.52 24.776 38.152C24.776 37.8 25.112 37.512 25.52 37.512C25.96 37.512 26.24 37.728 26.24 38.064ZM33.152 37.68C33.28 37.608 33.28 37.608 33.48 37.472C33.64 37.368 34.216 36.936 34.36 36.816C34.632 36.584 35.216 36.064 35.616 35.696C35.84 35.488 35.896 35.44 36.032 35.368L35.536 34.664C35.408 34.728 35.32 34.744 35.04 34.768C34.264 34.824 33.288 34.864 32.608 34.864C32.168 34.864 31.936 34.848 31.664 34.816L31.704 35.776C31.856 35.752 31.912 35.744 32.088 35.736C33.536 35.672 34.048 35.64 34.352 35.6L34.36 35.608C34.312 35.656 34.232 35.736 34.216 35.752C33.608 36.368 32.568 37.264 31.824 37.832C31.296 38.232 30.976 38.448 30.696 38.584L31.24 39.448C32.2 38.576 33.368 38.104 34.536 38.104C35.504 38.104 36.12 38.512 36.12 39.136C36.12 39.704 35.832 40.048 35.168 40.296C35.048 39.952 34.96 39.776 34.8 39.576C34.464 39.152 33.976 38.92 33.416 38.92C32.616 38.92 32.04 39.4 32.04 40.064C32.04 40.424 32.216 40.76 32.52 40.984C32.84 41.224 33.4 41.352 34.072 41.352C34.808 41.352 35.488 41.192 36.008 40.896C36.72 40.496 37.096 39.888 37.096 39.128C37.096 38.032 36.216 37.328 34.848 37.328C34.248 37.328 33.896 37.408 33.168 37.696L33.152 37.68ZM34.304 40.528C34.08 40.56 34.04 40.56 33.888 40.56C33.296 40.56 32.936 40.376 32.936 40.056C32.936 39.832 33.12 39.688 33.408 39.688C33.856 39.688 34.16 39.976 34.304 40.528Z" fill="#8C8C8C"/>
</svg>
