<svg width="19" height="20" viewBox="0 0 19 20" fill="none" xmlns="http://www.w3.org/2000/svg">
<path d="M16.2308 5.327L15.3169 4.26388C14.5421 3.45006 13.6098 2.8024 12.5767 2.36032C11.5436 1.91824 10.4314 1.69099 9.30769 1.69239C4.72115 1.69239 1 5.41354 1 10.0001C1 14.5866 4.72115 18.3078 9.30769 18.3078C11.0259 18.3077 12.7019 17.775 14.1049 16.7832C15.508 15.7914 16.5692 14.3891 17.1425 12.7693" stroke="#333333" strokeWidth="1.5" strokeMiterlimit="10" strokeLinecap="round"/>
<path d="M19.0001 3.13844V7.92315C19.0001 8.10676 18.9271 8.28285 18.7973 8.41269C18.6675 8.54252 18.4914 8.61546 18.3078 8.61546H13.5231C12.906 8.61546 12.5971 7.86993 13.0333 7.43378L17.8184 2.64863C18.2546 2.21161 19.0001 2.52142 19.0001 3.13844Z" fill="#333333"/>
</svg>
