<svg width="44" height="44" viewBox="0 0 44 44" fill="none" xmlns="http://www.w3.org/2000/svg">
<path d="M20 20C24.4183 20 28 16.4183 28 12C28 7.58172 24.4183 4 20 4C15.5817 4 12 7.58172 12 12C12 16.4183 15.5817 20 20 20Z" stroke="#DF6059" stroke-width="3" stroke-linecap="round" stroke-linejoin="round"/>
<path d="M32 24.0001L25.5 17.9998" stroke="#DF6059" stroke-width="3" stroke-linecap="round" stroke-linejoin="round"/>
<path d="M11.056 36.888C11.176 36.872 11.208 36.872 11.408 36.864C12.36 36.848 13.544 36.768 14.248 36.672C14.776 37.656 14.784 37.68 15.112 38.128C14.712 37.968 14.248 37.888 13.728 37.888C12.816 37.888 12.152 38.072 11.688 38.464C11.32 38.776 11.112 39.2 11.112 39.656C11.112 40.056 11.28 40.448 11.584 40.736C11.992 41.128 12.784 41.344 13.808 41.344C14.608 41.344 15.352 41.216 16.344 40.912L16.216 39.888C15.592 40.216 14.656 40.424 13.808 40.424C12.72 40.424 12.128 40.136 12.128 39.616C12.128 39.048 12.768 38.72 13.856 38.72C14.336 38.72 14.76 38.784 15.12 38.904C15.344 38.984 15.472 39.064 15.672 39.248L16.6 38.824C16.32 38.448 15.968 37.928 15.752 37.56C15.672 37.416 15.488 37.08 15.2 36.544C15.864 36.416 16.256 36.336 16.376 36.304C16.648 36.248 16.736 36.224 16.944 36.192L16.832 35.24C16.408 35.4 15.696 35.568 14.872 35.712C14.624 35.128 14.48 34.704 14.432 34.432L13.4 34.568C13.44 34.632 13.784 35.48 13.92 35.832C13.424 35.896 12.36 35.968 11.76 35.968C11.432 35.968 11.224 35.96 10.984 35.928L11.056 36.888ZM23.704 36.6C24.144 37.184 24.64 38.36 24.8 39.2L25.712 38.744C25.48 37.824 25.064 36.96 24.512 36.2L23.704 36.6ZM21.352 34.84C21.368 34.76 21.392 34.656 21.416 34.592L20.376 34.488C20.376 34.552 20.376 34.6 20.376 34.632C20.376 34.904 20.32 35.36 20.168 36.248C19.24 36.368 18.824 36.408 18.464 36.416L18.56 37.36C18.672 37.328 18.76 37.304 18.888 37.28L19.616 37.16C19.872 37.112 19.872 37.112 19.992 37.096C19.616 38.584 19 40.024 18.384 40.864L19.312 41.376C20.192 39.632 20.552 38.664 20.944 37.024C21.128 37.008 21.256 37 21.424 37C22.04 37 22.224 37.216 22.224 37.952C22.224 38.632 22.144 39.36 22.016 39.776C21.896 40.168 21.768 40.32 21.536 40.32C21.256 40.32 20.8 40.192 20.368 40C20.432 40.312 20.448 40.472 20.448 40.68C20.448 40.76 20.44 40.88 20.432 41.032C20.968 41.208 21.296 41.272 21.664 41.272C22.088 41.272 22.328 41.176 22.552 40.912C22.936 40.472 23.168 39.376 23.168 38C23.168 37.272 23.064 36.888 22.792 36.584C22.528 36.304 22.136 36.16 21.608 36.16C21.464 36.16 21.352 36.168 21.112 36.176C21.136 36.072 21.136 36.072 21.16 35.936C21.24 35.504 21.296 35.176 21.336 34.944L21.352 34.84ZM23.208 34.896C23.56 35.28 23.784 35.6 24.048 36.088L24.608 35.792C24.336 35.296 24.12 34.992 23.768 34.616L23.208 34.896ZM25.56 35.272C25.312 34.816 25.088 34.512 24.728 34.144L24.192 34.424C24.504 34.768 24.768 35.144 25.008 35.584L25.56 35.272ZM31.16 36.744V36.224C31.792 36.208 31.936 36.208 32.128 36.208C32.792 36.208 33.176 36.224 33.472 36.248L33.464 35.328C33.168 35.36 32.544 35.376 31.152 35.384C31.16 34.696 31.16 34.68 31.192 34.432L30.184 34.44C30.224 34.648 30.224 34.648 30.232 35.408C29.816 35.424 29.816 35.424 29.552 35.432C28.896 35.448 28.816 35.448 28.296 35.464C27.264 35.504 27.136 35.504 26.936 35.504C26.792 35.504 26.72 35.504 26.544 35.488L26.576 36.44C26.792 36.408 26.792 36.408 28 36.32C28.352 36.296 29.104 36.272 30.248 36.24C30.248 36.456 30.248 36.904 30.256 36.92C30.256 36.976 30.256 36.976 30.264 37.016C30.08 36.864 29.776 36.776 29.432 36.776C28.504 36.776 27.84 37.384 27.84 38.232C27.84 38.688 28.016 39.04 28.392 39.312C28.664 39.512 28.952 39.6 29.32 39.6C29.848 39.6 30.264 39.4 30.496 39.032C30.432 39.48 30.112 39.888 29.568 40.2C29.192 40.424 28.864 40.536 28.208 40.664C28.472 40.952 28.552 41.072 28.776 41.568C29.52 41.312 29.888 41.144 30.224 40.912C31 40.376 31.416 39.624 31.416 38.752C31.416 38.32 31.336 37.992 31.16 37.624C31.16 37.528 31.152 37.464 31.152 37.432L31.16 36.744ZM30.24 38.064C30.24 38.48 29.912 38.784 29.456 38.784C29.056 38.784 28.776 38.52 28.776 38.152C28.776 37.8 29.112 37.512 29.52 37.512C29.96 37.512 30.24 37.728 30.24 38.064Z" fill="#DF6059"/>
</svg>
