<svg width="44" height="51" viewBox="0 0 44 51" fill="none" xmlns="http://www.w3.org/2000/svg">
<path d="M41.66 22.8369C41.6613 19.0647 40.5867 15.3705 38.5622 12.1876C36.5378 9.00469 33.6475 6.46525 30.2305 4.86726C26.8135 3.26928 23.0117 2.67904 19.2711 3.16581C15.5305 3.65258 12.0063 5.19617 9.11208 7.61544C6.21789 10.0347 4.07377 13.2293 2.93132 16.8243C1.78888 20.4193 1.69552 24.2655 2.66219 27.9117C3.62886 31.5579 5.61546 34.8528 8.38886 37.4096C11.1623 39.9664 14.6074 41.6792 18.32 42.3469L21.83 47.0069L25.35 42.3469C29.9249 41.5237 34.0649 39.1187 37.0463 35.5524C40.0277 31.986 41.6608 27.4853 41.66 22.8369V22.8369Z" fill="#3A8CED" stroke="white" stroke-width="2" stroke-miterlimit="10"/>
<path d="M22 16V30" stroke="white" stroke-width="2" stroke-linecap="round" stroke-linejoin="round"/>
<path d="M15 23H29" stroke="white" stroke-width="2" stroke-linecap="round" stroke-linejoin="round"/>
</svg>
