<svg width="25" height="24" viewBox="0 0 25 24" fill="none" xmlns="http://www.w3.org/2000/svg">
<path d="M2.86574 2.09888L20.7466 19.6148C21.0859 19.9472 21.2765 20.398 21.2765 20.868C21.2765 21.3381 21.0859 21.7889 20.7466 22.1213V22.1213C20.4072 22.4535 19.9471 22.6401 19.4673 22.6401C18.9875 22.6401 18.5273 22.4535 18.188 22.1213L13.82 17.7688C13.5342 17.4844 13.3738 17.1015 13.3735 16.7024V16.4395C13.3736 16.238 13.3328 16.0385 13.2534 15.8526C13.1741 15.6667 13.0579 15.498 12.9115 15.3565L12.3476 14.8464C12.1561 14.6733 11.9233 14.5502 11.6706 14.4884C11.4178 14.4266 11.1533 14.4281 10.9013 14.4926V14.4926C10.5039 14.5942 10.0863 14.5923 9.68988 14.487C9.2935 14.3816 8.93212 14.1766 8.6416 13.8922L4.49546 9.83018C2.03583 7.42075 1.1307 3.78234 2.86574 2.09888Z" stroke="white" stroke-width="1.5" stroke-linejoin="round"/>
<path d="M19.4886 1.35059L15.7395 5.02322C15.451 5.30577 15.2221 5.64122 15.066 6.01043C14.9099 6.37963 14.8295 6.77534 14.8295 7.17498V7.88145C14.8295 7.98141 14.8094 8.08039 14.7704 8.17273C14.7313 8.26507 14.6741 8.34897 14.6019 8.41963L14.053 8.95733" stroke="white" stroke-width="1.5" stroke-linecap="round" stroke-linejoin="round"/>
<path d="M15.606 10.4788L16.1549 9.94107C16.227 9.87037 16.3126 9.81429 16.4069 9.77603C16.5012 9.73777 16.6022 9.71808 16.7043 9.7181H17.4254C17.8334 9.7181 18.2374 9.63938 18.6143 9.48643C18.9911 9.33348 19.3336 9.1093 19.622 8.82668L23.3712 5.15405" stroke="white" stroke-width="1.5" stroke-linecap="round" stroke-linejoin="round"/>
<path d="M21.4297 3.2522L17.5471 7.05557" stroke="white" stroke-width="1.5" stroke-linecap="round" stroke-linejoin="round"/>
<path d="M9.78197 17.3248L4.9423 22.0923C4.57825 22.4488 4.08456 22.6491 3.5698 22.6491C3.05503 22.6491 2.56134 22.4488 2.19729 22.0923V22.0923C1.83336 21.7357 1.62891 21.2521 1.62891 20.7478C1.62891 20.2436 1.83336 19.7599 2.19729 19.4033L6.28762 15.4231" stroke="white" stroke-width="1.5" stroke-linecap="round" stroke-linejoin="round"/>
</svg>
