<svg width="53" height="58" viewBox="0 0 53 58" fill="none" xmlns="http://www.w3.org/2000/svg">
<g filter="url(#filter0_d)">
<path d="M23.4948 43.3441L23.6114 43.5349L26.9771 49.0413L30.3428 43.5349L30.4601 43.343L30.6815 43.3034C40.4086 41.5659 48.097 33.006 48.4546 22.3828L48.4547 22.379C48.9453 10.4899 39.3112 0.5 27.0228 0.5C14.6886 0.5 5.05372 10.4906 5.49963 22.3807L23.4948 43.3441ZM23.4948 43.3441L23.2749 43.3038M23.4948 43.3441L23.2749 43.3038M23.2749 43.3038C13.5461 41.5214 5.90211 33.0056 5.49964 22.3809L23.2749 43.3038Z" fill="#DF6059" stroke="white"/>
<path d="M17.4945 12.0991L35.3754 29.6151C35.7147 29.9475 35.9053 30.3983 35.9053 30.8683C35.9053 31.3383 35.7147 31.7891 35.3754 32.1215V32.1215C35.036 32.4537 34.5759 32.6404 34.0961 32.6404C33.6163 32.6404 33.1561 32.4537 32.8168 32.1215L28.4488 27.769C28.163 27.4847 28.0026 27.1017 28.0023 26.7026V26.4397C28.0024 26.2382 27.9615 26.0387 27.8822 25.8528C27.8029 25.6669 27.6867 25.4983 27.5403 25.3567L26.9763 24.8466C26.7849 24.6736 26.5521 24.5505 26.2994 24.4887C26.0466 24.4268 25.7821 24.4283 25.5301 24.4929V24.4929C25.1327 24.5945 24.7151 24.5925 24.3187 24.4872C23.9223 24.3819 23.5609 24.1768 23.2704 23.8924L19.1242 19.8304C16.6646 17.421 15.7595 13.7826 17.4945 12.0991Z" stroke="white" stroke-width="1.5" stroke-linejoin="round"/>
<path d="M34.1174 11.3508L30.3683 15.0235C30.0798 15.306 29.8509 15.6415 29.6948 16.0107C29.5386 16.3799 29.4583 16.7756 29.4583 17.1752V17.8817C29.4583 17.9817 29.4382 18.0806 29.3992 18.173C29.3601 18.2653 29.3028 18.3492 29.2307 18.4199L28.6818 18.9576" stroke="white" stroke-width="1.5" stroke-linecap="round" stroke-linejoin="round"/>
<path d="M30.2347 20.4789L30.7836 19.9412C30.8558 19.8705 30.9414 19.8144 31.0357 19.7761C31.13 19.7379 31.231 19.7182 31.333 19.7182H32.0542C32.4622 19.7182 32.8661 19.6395 33.243 19.4866C33.6199 19.3336 33.9624 19.1094 34.2508 18.8268L38 15.1542" stroke="white" stroke-width="1.5" stroke-linecap="round" stroke-linejoin="round"/>
<path d="M36.0588 13.2524L32.1761 17.0558" stroke="white" stroke-width="1.5" stroke-linecap="round" stroke-linejoin="round"/>
<path d="M24.4109 27.325L19.5712 32.0926C19.2072 32.4491 18.7135 32.6493 18.1987 32.6493C17.6839 32.6493 17.1902 32.4491 16.8262 32.0926V32.0926C16.4623 31.7359 16.2578 31.2523 16.2578 30.7481C16.2578 30.2438 16.4623 29.7602 16.8262 29.4036L20.9165 25.4233" stroke="white" stroke-width="1.5" stroke-linecap="round" stroke-linejoin="round"/>
</g>
<defs>
<filter id="filter0_d" x="0.984741" y="0" width="52.0153" height="58.1875" filterUnits="userSpaceOnUse" color-interpolation-filters="sRGB">
<feFlood flood-opacity="0" result="BackgroundImageFix"/>
<feColorMatrix in="SourceAlpha" type="matrix" values="0 0 0 0 0 0 0 0 0 0 0 0 0 0 0 0 0 0 127 0"/>
<feOffset dy="4"/>
<feGaussianBlur stdDeviation="2"/>
<feColorMatrix type="matrix" values="0 0 0 0 0 0 0 0 0 0 0 0 0 0 0 0 0 0 0.15 0"/>
<feBlend mode="normal" in2="BackgroundImageFix" result="effect1_dropShadow"/>
<feBlend mode="normal" in="SourceGraphic" in2="effect1_dropShadow" result="shape"/>
</filter>
</defs>
</svg>
