<svg id="レイヤー_1" data-name="レイヤー 1" xmlns="http://www.w3.org/2000/svg" viewBox="0 0 50.61 57.85"><defs><style>.cls-1{fill:#ffae95;stroke:#fff;strokeMiterlimit:10;strokeWidth:2px;}.cls-2,.cls-3{fill:none;stroke:#333;strokeLinejoin:round;}.cls-2{strokeLinecap:round;}</style></defs><path class="cls-1" d="M45.13,26.75A19.83,19.83,0,1,0,21.79,46.26l3.51,4.66,3.52-4.66A19.82,19.82,0,0,0,45.13,26.75Z"/><path class="cls-2" d="M17.18,26.36V23.45a2.82,2.82,0,0,1-1.45-2.89c.15-1.65,1.18-2.91,2.3-2.91s2.15,1.26,2.3,2.91a2.83,2.83,0,0,1-1.44,2.88v2.92"/><path class="cls-3" d="M19.42,26.36H16.76V35.5a1.31,1.31,0,0,0,1.35,1.31,1.39,1.39,0,0,0,.95-.42,1.33,1.33,0,0,0,.38-1Z"/><path class="cls-3" d="M23.88,26.36V35.5a1.35,1.35,0,0,0,.4.94,1.3,1.3,0,0,0,.95.37,1.38,1.38,0,0,0,1.34-1.38l0-9.07Z"/><line class="cls-2" x1="26.08" y1="23.22" x2="26.08" y2="26.36"/><line class="cls-2" x1="24.39" y1="26.36" x2="24.39" y2="23.24"/><line class="cls-2" x1="25.22" y1="17.65" x2="25.22" y2="20.93"/><path class="cls-2" d="M22.93,17.65V21.1a2.29,2.29,0,0,0,1.46,2.13"/><path class="cls-2" d="M26.08,23.22a2.29,2.29,0,0,0,1.44-2.12V17.65"/><path class="cls-3" d="M30.94,28.88V35.5a1.35,1.35,0,0,0,.4.94,1.3,1.3,0,0,0,.95.37,1.38,1.38,0,0,0,1.34-1.38l0-6.55Z"/><path class="cls-3" d="M33.14,17.39v11.5H31.45V26.1a1.34,1.34,0,0,1-1.35-1.25V22C30.1,19.45,31.34,17.39,33.14,17.39Z"/></svg>