<svg width="27" height="35" viewBox="0 0 27 35" fill="none" xmlns="http://www.w3.org/2000/svg">
  <path d="M10.5281 6.34106H16.0874" stroke="#333333" stroke-width="2" strokeLinecap="round" strokeLinejoin="round"/>
  <path d="M20.0195 9.98267H6.46021V14.4336H20.0195V9.98267Z" stroke="#333333" stroke-width="2" strokeLinecap="round" strokeLinejoin="round"/>
  <path d="M18.2567 22.5264C18.8558 22.5264 19.3415 22.0433 19.3415 21.4474C19.3415 20.8515 18.8558 20.3684 18.2567 20.3684C17.6577 20.3684 17.172 20.8515 17.172 21.4474C17.172 22.0433 17.6577 22.5264 18.2567 22.5264Z" stroke="#333333" stroke-width="2" strokeLinecap="round" strokeLinejoin="round"/>
  <path d="M8.35849 22.3912C8.95758 22.3912 9.44324 21.9081 9.44324 21.3122C9.44324 20.7162 8.95758 20.2332 8.35849 20.2332C7.7594 20.2332 7.27374 20.7162 7.27374 21.3122C7.27374 21.9081 7.7594 22.3912 8.35849 22.3912Z" stroke="#333333" stroke-width="2" strokeLinecap="round" strokeLinejoin="round"/>
  <path d="M24.2228 9.71274V24.5492C24.2228 25.3585 23.9517 26.0329 23.4093 26.5724C22.8669 27.1119 22.1889 27.3816 21.3754 27.3816H5.37539C3.74827 27.3816 2.39233 26.0329 2.39233 24.4143V9.57786C2.39233 5.12692 5.91776 1.62012 10.3923 1.62012H16.2228C20.6974 1.75499 24.2228 5.2618 24.2228 9.71274Z" stroke="#333333" stroke-width="2" strokeLinecap="round" strokeLinejoin="round"/>
  <path d="M1.30762 33.4511L4.01948 27.3816" stroke="#333333" stroke-width="2" strokeLinecap="round" strokeLinejoin="round"/>
  <path d="M25.3076 33.4511L22.5957 27.3816" stroke="#333333" stroke-width="2" strokeLinecap="round" strokeLinejoin="round"/>
  <path d="M2.93475 30.7534H23.6805" stroke="#333333" stroke-width="2" strokeLinecap="round" strokeLinejoin="round"/>
</svg>
