<svg width="401" height="332" viewBox="0 0 401 332" fill="none" xmlns="http://www.w3.org/2000/svg">
<path fill-rule="evenodd" clip-rule="evenodd" d="M231.438 47.768C266.291 55.9936 308.072 45.432 334.678 66.7275C361.301 88.0369 356.794 123.196 363.297 153.308C369.621 182.593 386.188 213.294 372.048 239.769C357.886 266.285 321.893 276.969 290.745 289.15C261.217 300.698 230.657 309.317 197.579 307.999C161.381 306.557 121.134 303.669 95.1278 281.357C69.3217 259.217 76.568 224.125 65.5522 194.728C52.6065 160.181 16.5596 129.028 25.0234 94.2758C33.9373 57.6753 67.1896 23.1906 109.66 13.6215C151.017 4.30314 189.292 37.8212 231.438 47.768Z" fill="white"/>
</svg>
