<svg width="41" height="40" viewBox="0 0 41 40" fill="none" xmlns="http://www.w3.org/2000/svg">
<path d="M11.7886 13.0771L12.7501 28.4618C12.7958 29.3507 13.4425 30.0002 14.2886 30.0002H23.1348C23.9843 30.0002 24.6189 29.3507 24.6732 28.4618L25.6348 13.0771" stroke="#DF6059" stroke-width="2" stroke-linecap="round" stroke-linejoin="round"/>
<path d="M10.25 13.0771H27.1731" stroke="#DF6059" stroke-width="2" stroke-miterlimit="10" stroke-linecap="round"/>
<path d="M15.6347 13.0769V11.1539C15.6343 11.0022 15.6638 10.852 15.7217 10.7118C15.7795 10.5716 15.8645 10.4442 15.9717 10.337C16.0789 10.2297 16.2063 10.1448 16.3465 10.0869C16.4867 10.0291 16.6369 9.99956 16.7886 10H20.6347C20.7864 9.99956 20.9366 10.0291 21.0768 10.0869C21.217 10.1448 21.3444 10.2297 21.4516 10.337C21.5589 10.4442 21.6438 10.5716 21.7017 10.7118C21.7595 10.852 21.789 11.0022 21.7886 11.1539V13.0769" stroke="#DF6059" stroke-width="2" stroke-linecap="round" stroke-linejoin="round"/>
<path d="M18.7115 16.1538V26.923" stroke="#DF6059" stroke-width="2" stroke-linecap="round" stroke-linejoin="round"/>
<path d="M15.2501 16.1538L15.6347 26.923" stroke="#DF6059" stroke-width="2" stroke-linecap="round" stroke-linejoin="round"/>
<path d="M22.173 16.1538L21.7884 26.923" stroke="#DF6059" stroke-width="2" stroke-linecap="round" stroke-linejoin="round"/>
</svg>
