<svg id="レイヤー_1" data-name="レイヤー 1" xmlns="http://www.w3.org/2000/svg" viewBox="0 0 25.51 25.51"><defs><style>.cls-1,.cls-2{fill:#fff;stroke-linecap:round;stroke-linejoin:round;}.cls-1{stroke:#040000;}.cls-2{stroke:#000;}</style></defs><path class="cls-1" d="M17.69,9.63c3,.75,5.07,2.19,5.07,3.84,0,2.45-4.47,4.42-10,4.42s-10-2-10-4.42C2.76,12,4.44,10.65,7,9.85"/><path class="cls-2" d="M7.16,10.43,4.91,9.13v2.54a1.34,1.34,0,0,0,.67,1.15l1.2.69a1.25,1.25,0,0,0,.82.17l8-1.11a1.33,1.33,0,0,0,1.18-1.32V9.13Z"/><path class="cls-2" d="M14.58,7.63,5.05,8.93a.87.87,0,0,0-.77.86h0a.87.87,0,0,0,.43.75l1.6.93a1.68,1.68,0,0,0,1.05.21l9.53-1.29a.88.88,0,0,0,.77-.87h0a.87.87,0,0,0-.44-.75l-1.59-.92A1.76,1.76,0,0,0,14.58,7.63Z"/><path class="cls-2" d="M10.74,12.22l-2.25-1.3v2.54a1.33,1.33,0,0,0,.66,1.15l1.2.69a1.27,1.27,0,0,0,.83.17l8-1.11A1.33,1.33,0,0,0,20.32,13V10.92Z"/><path class="cls-2" d="M18.15,9.42l-9.53,1.3a.87.87,0,0,0-.77.86h0a.86.86,0,0,0,.44.75l1.59.93a1.7,1.7,0,0,0,1.06.21l9.53-1.29a.88.88,0,0,0,.76-.87h0a.86.86,0,0,0-.43-.75l-1.6-.92A1.74,1.74,0,0,0,18.15,9.42Z"/></svg>