<svg id="レイヤー_1" data-name="レイヤー 1" xmlns="http://www.w3.org/2000/svg" viewBox="0 0 25.51 25.51"><defs><style>.cls-1{fill:none;}.cls-1,.cls-2{stroke:#040000;strokeLinecap:round;strokeLinejoin:round;}.cls-2{fill:#fff;}</style></defs><path class="cls-1" d="M22.75,9.61a4.51,4.51,0,0,1-2,3.5A2.85,2.85,0,0,0,21,12c0-2.64-3.68-4.79-8.2-4.79S4.57,9.33,4.57,12a2.9,2.9,0,0,0,.26,1.19,4.76,4.76,0,0,1-2.05-3.1,3.4,3.4,0,0,1,0-.45c0-3.22,4.48-5.84,10-5.84S22.75,6.39,22.75,9.61Z"/><path class="cls-1" d="M21,12a2.85,2.85,0,0,1-.24,1.14,13.28,13.28,0,0,1-8,2.34,13.39,13.39,0,0,1-7.92-2.28h0A2.9,2.9,0,0,1,4.57,12c0-2.64,3.68-4.79,8.21-4.79S21,9.33,21,12Z"/><line class="cls-1" x1="5.77" y1="12.91" x2="13.28" y2="10.8"/><line class="cls-1" x1="6.75" y1="14.26" x2="14.25" y2="12.15"/><line class="cls-1" x1="9.29" y1="15.29" x2="15.17" y2="13.64"/><line class="cls-1" x1="11.96" y1="9.23" x2="13.58" y2="7.48"/><line class="cls-1" x1="6.46" y1="9.41" x2="9.72" y2="11.75"/><line class="cls-1" x1="4.82" y1="10.19" x2="7.62" y2="12.2"/><path class="cls-2" d="M19,13.09c-1.18,2.28-2.85,2.61-4.48,1.71s-2.35-2.37-1.16-4.65,3.34-3.35,4.88-2.48S20.2,10.83,19,13.09Z"/><circle class="cls-2" cx="15.98" cy="12.02" r="1.62"/><line class="cls-1" x1="7.53" y1="8.29" x2="11.36" y2="11.04"/><line class="cls-1" x1="8.88" y1="7.37" x2="12.58" y2="10.03"/><path class="cls-2" d="M22.77,9.61v1.74c0,5.89-2.75,8-6.45,8.68l.05,1.71H9.3L9.24,20c-3.7-.76-6.46-3-6.46-8.62V10.06c.39,3,4.71,4.39,10,4.39,5.53,0,10-1.62,10-4.84Z"/></svg>