<svg id="レイヤー_1" data-name="レイヤー 1" xmlns="http://www.w3.org/2000/svg" viewBox="0 0 25.51 25.51"><defs><style>.cls-1,.cls-2,.cls-3,.cls-4{fill:none;stroke:#231815;}.cls-1{strokeMiterlimit:10;}.cls-2,.cls-4{strokeLinecap:round;}.cls-2,.cls-3,.cls-4{strokeLinejoin:round;}.cls-2{strokeWidth:4px;}</style></defs><circle class="cls-1" cx="12.83" cy="12.75" r="6.76"/><circle class="cls-1" cx="12.83" cy="12.75" r="4.54"/><line class="cls-2" x1="10.25" y1="10.17" x2="15.41" y2="15.33"/><path class="cls-3" d="M2.18,12.15v7.46a1.07,1.07,0,0,0,.33.77,1,1,0,0,0,.77.3,1.12,1.12,0,0,0,.78-.34,1.14,1.14,0,0,0,.32-.78l0-7.41Z"/><path class="cls-4" d="M4,9.58v2.57"/><path class="cls-4" d="M2.59,12.15V9.6"/><line class="cls-4" x1="3.28" y1="5.03" x2="3.28" y2="7.71"/><path class="cls-4" d="M1.4,5V7.85A1.89,1.89,0,0,0,2.59,9.59"/><path class="cls-4" d="M4,9.58A1.86,1.86,0,0,0,5.15,7.85V5"/><path class="cls-3" d="M21.57,14.2v5.41a1.09,1.09,0,0,0,1.1,1.07,1.16,1.16,0,0,0,.78-.34,1.18,1.18,0,0,0,.32-.79l0-5.35Z"/><path class="cls-3" d="M23.36,4.82v9.39H22V11.93a1.1,1.1,0,0,1-1.1-1V8.61C20.88,6.5,21.89,4.82,23.36,4.82Z"/></svg>