<svg id="レイヤー_1" data-name="レイヤー 1" xmlns="http://www.w3.org/2000/svg" viewBox="0 0 25.51 25.51"><defs><style>.cls-1,.cls-2,.cls-5{fill:none;}.cls-1,.cls-3{stroke:#040000;}.cls-1,.cls-2,.cls-3{strokeLinecap:round;}.cls-1,.cls-2,.cls-3,.cls-5{strokeLinejoin:round;}.cls-2,.cls-5{stroke:#231815;}.cls-3,.cls-4{fill:#fff;}</style></defs><path class="cls-1" d="M22.76,17.38c0,1.88-4.47,3.38-10,3.38s-10-1.5-10-3.38Z"/><path class="cls-2" d="M12.26,8h2.31a1.13,1.13,0,0,0,.51-.1,1.25,1.25,0,0,0,.44-.29l.22-.22.1-.07a.3.3,0,0,1,.13,0h.34"/><path class="cls-2" d="M16.3,6H16a.28.28,0,0,1-.13,0,.41.41,0,0,1-.11-.07l-.23-.23a1.42,1.42,0,0,0-1-.4H12.22"/><path class="cls-2" d="M12.24,6.63H14"/><path class="cls-3" d="M19.75,17.38H5.14c.17-2.6,3.37-4.17,7.3-4.17S19.58,14.78,19.75,17.38Z"/><path class="cls-4" d="M11.09,12.11c0,1.06,1.13,1.06,1.13,2.12s-1.13,1.06-1.13,2.12H7.38A1.37,1.37,0,0,1,8,15.29a1.37,1.37,0,0,0,.57-1.06c0-1.06-1.14-1.06-1.14-2.12S8.52,11.05,8.52,10V4.86h3.7V10C12.22,11.05,11.09,11.05,11.09,12.11Z"/><path class="cls-1" d="M7.38,16.35c0-1.06,1.13-1.06,1.13-2.12S7.38,13.16,7.38,12.1,8.51,11,8.51,10V4.75"/><path class="cls-1" d="M9.23,16.35c0-1.06,1.14-1.06,1.14-2.12S9.23,13.16,9.23,12.1,10.37,11,10.37,10V4.75"/><path class="cls-1" d="M11.09,16.35c0-1.06,1.13-1.06,1.13-2.12s-1.13-1.07-1.13-2.13S12.22,11,12.22,10V4.75"/><line class="cls-1" x1="11.8" y1="15.14" x2="15.05" y2="17.48"/><line class="cls-1" x1="12.86" y1="14.02" x2="16.69" y2="16.77"/><line class="cls-1" x1="14.63" y1="15.09" x2="16.3" y2="13.9"/><line class="cls-1" x1="15.89" y1="16.19" x2="17.14" y2="15.3"/><path class="cls-5" d="M22.14,6.1a.86.86,0,0,0-.6-.25l-4.82-.06,0,1.67,4.87.08a.85.85,0,0,0,.59-.24.81.81,0,0,0,.24-.6A.86.86,0,0,0,22.14,6.1Z"/></svg>