<svg id="レイヤー_1" data-name="レイヤー 1" xmlns="http://www.w3.org/2000/svg" viewBox="0 0 25.51 25.51"><defs><style>.cls-1{fill:none;}.cls-1,.cls-2{stroke:#040000;stroke-linecap:round;stroke-linejoin:round;}.cls-2{fill:#fff;}</style></defs><line class="cls-1" x1="21.76" y1="10.76" x2="3.76" y2="10.76"/><line class="cls-1" x1="21.76" y1="6.76" x2="3.76" y2="6.76"/><line class="cls-1" x1="21.76" y1="14.76" x2="3.76" y2="14.76"/><line class="cls-1" x1="21.76" y1="18.76" x2="3.76" y2="18.76"/><line class="cls-1" x1="14.76" y1="21.76" x2="14.76" y2="3.76"/><line class="cls-1" x1="18.76" y1="21.76" x2="18.76" y2="3.76"/><line class="cls-1" x1="10.76" y1="21.76" x2="10.76" y2="3.76"/><line class="cls-1" x1="6.76" y1="21.76" x2="6.76" y2="3.76"/><path class="cls-2" d="M19.49,9.86c.43,2.1-.2,5.48-1.79,5.81L8.82,17.52c-1.58.33-2.94.26-3.37-1.84s.2-5.48,1.78-5.81L16.11,8C17.7,7.7,19.05,7.76,19.49,9.86Z"/><line class="cls-1" x1="12.47" y1="10.65" x2="12.47" y2="14.9"/><line class="cls-1" x1="14.89" y1="10" x2="14.89" y2="14.25"/><line class="cls-1" x1="9.91" y1="11.29" x2="9.91" y2="15.54"/></svg>