<svg id="レイヤー_1" data-name="レイヤー 1" xmlns="http://www.w3.org/2000/svg" viewBox="0 0 25.51 25.51"><defs><style>.cls-1,.cls-2{fill:none;stroke:#231815;strokeLinejoin:round;}.cls-1{strokeLinecap:round;}</style></defs><path class="cls-1" d="M5.86,12.07V9.4A2.6,2.6,0,0,1,4.53,6.74c.13-1.52,1.08-2.68,2.11-2.68s2,1.16,2.12,2.68A2.6,2.6,0,0,1,7.43,9.39v2.68"/><path class="cls-2" d="M7.92,12.07H5.48v8.41a1.23,1.23,0,0,0,.37.87,1.18,1.18,0,0,0,.87.34,1.31,1.31,0,0,0,.88-.38A1.24,1.24,0,0,0,8,20.42Z"/><path class="cls-2" d="M12,12.07v8.41a1.19,1.19,0,0,0,.37.87,1.17,1.17,0,0,0,.87.34,1.29,1.29,0,0,0,.87-.38,1.25,1.25,0,0,0,.36-.89l0-8.35Z"/><path class="cls-1" d="M14.05,9.19v2.88"/><path class="cls-1" d="M12.49,12.07V9.2"/><line class="cls-1" x1="13.26" y1="4.06" x2="13.26" y2="7.07"/><path class="cls-1" d="M11.15,4.06V7.23a2.12,2.12,0,0,0,1.34,2"/><path class="cls-1" d="M14.05,9.19a2.12,2.12,0,0,0,1.32-2V4.06"/><path class="cls-2" d="M18.52,14.39v6.09a1.23,1.23,0,0,0,.36.87,1.21,1.21,0,0,0,.88.34A1.26,1.26,0,0,0,21,20.42l0-6Z"/><path class="cls-2" d="M20.55,3.82V14.4H19V11.83a1.23,1.23,0,0,1-1.24-1.15V8.09C17.75,5.71,18.89,3.82,20.55,3.82Z"/></svg>