<svg id="レイヤー_1" data-name="レイヤー 1" xmlns="http://www.w3.org/2000/svg" viewBox="0 0 25.51 25.51"><defs><style>.cls-1{fill:none;}.cls-1,.cls-2{stroke:#040000;strokeLinecap:round;strokeLinejoin:round;}.cls-2{fill:#fff;}</style></defs><line class="cls-1" x1="4.57" y1="12.64" x2="4.56" y2="12.64"/><line class="cls-1" x1="21.86" y1="12.63" x2="21.85" y2="12.63"/><path class="cls-2" d="M16,20.25l0,1.56H9.58L9.53,20.2c-3.37-.69-5.88-2.77-5.88-7.84h18.2C21.86,17.71,19.35,19.64,16,20.25Z"/><path class="cls-1" d="M20.92,11.58a1.68,1.68,0,0,1-.52.78H5.1a1.75,1.75,0,0,1-.52-.78,1.06,1.06,0,0,1,.5-1.21A.87.87,0,0,1,4.83,10a1.05,1.05,0,0,1,1-1.42h0a.5.5,0,0,1-.08-.2A1,1,0,0,1,7,7,1.22,1.22,0,0,1,8,5.58a1.61,1.61,0,0,1,1,.16,1.21,1.21,0,0,1,1-1.27,1.69,1.69,0,0,1,1.12.24,1.73,1.73,0,0,1,3.14,0,1.69,1.69,0,0,1,1.12-.24,1.22,1.22,0,0,1,1,1.27,1.57,1.57,0,0,1,1-.16A1.22,1.22,0,0,1,18.54,7a1,1,0,0,1,1.15,1.37.5.5,0,0,1-.08.2h0a1.06,1.06,0,0,1,1,1.42.9.9,0,0,1-.26.36A1.06,1.06,0,0,1,20.92,11.58Z"/></svg>