<svg id="レイヤー_1" data-name="レイヤー 1" xmlns="http://www.w3.org/2000/svg" viewBox="0 0 25.51 25.51"><defs><style>.cls-1{fill:none;}.cls-1,.cls-2{stroke:#040000;strokeLinecap:round;strokeLinejoin:round;}.cls-2{fill:#fff;}</style></defs><path class="cls-1" d="M16.64,7.59a1.57,1.57,0,0,1,1.45,1.67V20.94a1.57,1.57,0,0,1-1.45,1.67H7.94a1.57,1.57,0,0,1-1.45-1.67V9.26A1.57,1.57,0,0,1,7.94,7.59Z"/><path class="cls-1" d="M18.09,12.27h2a1.28,1.28,0,0,1,1.13,1.39v2.77a1.28,1.28,0,0,1-1.13,1.39h-2"/><path class="cls-2" d="M17.67,5.37A2.25,2.25,0,0,0,16.11,6a1.86,1.86,0,0,0,0-.33,2.77,2.77,0,0,0-5.5-.42A2.52,2.52,0,0,0,6.4,6.58H6.29A2,2,0,1,0,7.71,9.88h5.82v2.44a1.29,1.29,0,0,0,2.57,0V9.88h1.57a2.26,2.26,0,1,0,0-4.51Z"/></svg>