<svg id="レイヤー_1" data-name="レイヤー 1" xmlns="http://www.w3.org/2000/svg" viewBox="0 0 25.51 25.51"><defs><style>.cls-1{fill:none;}.cls-1,.cls-2{stroke:#040000;stroke-linecap:round;stroke-linejoin:round;}.cls-2{fill:#fff;}</style></defs><path class="cls-1" d="M20.1,9.17A2.25,2.25,0,0,1,23,9.94a2.58,2.58,0,0,1-1,3.51,3.29,3.29,0,0,1-2.93.06"/><path class="cls-2" d="M17.07,14.63c3,.41,5.07,1.2,5.07,2.1,0,1.35-4.47,2.42-10,2.42s-10-1.07-10-2.42c0-.82,1.68-1.54,4.25-2"/><path class="cls-2" d="M20.24,6.36c0,1,0,1.83-.1,2.63a13.87,13.87,0,0,1-1,4.52,5.41,5.41,0,0,1-1.58,2.12c-1.43,1.14-3.33,1.26-5.42,1.26s-3.84-.12-5.26-1.16C5.14,14.47,4,11.83,4,6.36Z"/></svg>