<svg width="185" height="185" viewBox="0 0 185 185" fill="none" xmlns="http://www.w3.org/2000/svg">
<g filter="url(#filter0_d)">
<path d="M81.2923 151.623L81.7589 152.385L92.4253 169.811L103.092 152.385L103.561 151.618L104.446 151.46C136.01 145.83 160.965 118.089 162.126 83.6555L162.126 83.6479L162.126 83.6403C163.718 45.126 132.463 12.7469 92.5744 12.7469C52.5356 12.7469 21.2781 45.1286 22.7246 83.6471L81.2923 151.623ZM81.2923 151.623L80.413 151.462M81.2923 151.623L80.413 151.462M80.413 151.462C48.8426 145.686 24.0311 118.087 22.7246 83.6478L80.413 151.462Z" fill="#FF8A1F" stroke="white" stroke-width="4"/>
<path d="M61.489 50.1647L119.824 107.23C120.931 108.313 121.553 109.782 121.553 111.313C121.553 112.844 120.931 114.313 119.824 115.396V115.396C118.717 116.478 117.216 117.086 115.651 117.086C114.085 117.086 112.584 116.478 111.477 115.396L97.2268 101.216C96.2942 100.289 95.7711 99.0417 95.7701 97.7416V96.8851C95.7702 96.2286 95.637 95.5787 95.3783 94.973C95.1195 94.3673 94.7403 93.8179 94.2627 93.3567L92.4229 91.6948C91.7983 91.131 91.0388 90.73 90.2143 90.5286C89.3897 90.3272 88.5267 90.332 87.7045 90.5424V90.5424C86.408 90.8734 85.0456 90.867 83.7524 90.5239C82.4592 90.1807 81.2802 89.5127 80.3324 88.5862L66.8058 75.3525C58.7814 67.5028 55.8285 55.6493 61.489 50.1647Z" stroke="white" stroke-width="4" stroke-linejoin="round"/>
<path d="M115.72 47.7268L103.489 59.6919C102.548 60.6124 101.801 61.7053 101.291 62.9081C100.782 64.111 100.52 65.4002 100.52 66.7021V69.0038C100.52 69.3294 100.454 69.6519 100.327 69.9527C100.2 70.2536 100.013 70.5269 99.7773 70.7571L97.9866 72.5089" stroke="white" stroke-width="4" stroke-linecap="round" stroke-linejoin="round"/>
<path d="M103.053 77.4652L104.844 75.7135C105.079 75.4831 105.359 75.3004 105.666 75.1758C105.974 75.0511 106.303 74.987 106.636 74.987H108.989C110.32 74.987 111.638 74.7306 112.868 74.2323C114.097 73.734 115.214 73.0036 116.155 72.0829L128.387 60.1178" stroke="white" stroke-width="4" stroke-linecap="round" stroke-linejoin="round"/>
<path d="M122.054 53.9221L109.387 66.3131" stroke="white" stroke-width="4" stroke-linecap="round" stroke-linejoin="round"/>
<path d="M84.0531 99.7692L68.2639 115.301C67.0762 116.463 65.4655 117.115 63.7862 117.115C62.1068 117.115 60.4961 116.463 59.3084 115.301V115.301C58.1211 114.14 57.4541 112.564 57.4541 110.921C57.4541 109.278 58.1211 107.703 59.3084 106.541L72.6529 93.5737" stroke="white" stroke-width="4" stroke-linecap="round" stroke-linejoin="round"/>
</g>
<defs>
<filter id="filter0_d" x="-4" y="0" width="193" height="193" filterUnits="userSpaceOnUse" color-interpolation-filters="sRGB">
<feFlood flood-opacity="0" result="BackgroundImageFix"/>
<feColorMatrix in="SourceAlpha" type="matrix" values="0 0 0 0 0 0 0 0 0 0 0 0 0 0 0 0 0 0 127 0"/>
<feOffset dy="4"/>
<feGaussianBlur stdDeviation="2"/>
<feColorMatrix type="matrix" values="0 0 0 0 0 0 0 0 0 0 0 0 0 0 0 0 0 0 0.15 0"/>
<feBlend mode="normal" in2="BackgroundImageFix" result="effect1_dropShadow"/>
<feBlend mode="normal" in="SourceGraphic" in2="effect1_dropShadow" result="shape"/>
</filter>
</defs>
</svg>
